<svg width="96" height="79" viewBox="0 0 96 79" fill="none" xmlns="http://www.w3.org/2000/svg">
<g clip-path="url(#clip0_317_20)">
<path d="M69.53 49.74H13.45C8.59 49.74 4.65 45.6 4.65 40.5L1.5 10.74C1.5 5.64 5.44 1.5 10.3 1.5H66.38C71.24 1.5 75.18 5.64 75.18 10.74L78.33 40.51C78.33 45.61 74.39 49.75 69.53 49.75V49.74Z" fill="white" stroke="black" stroke-width="3" stroke-miterlimit="10" stroke-linecap="round"/>
<path d="M76.77 49.74H20.7C15.84 49.74 11.9 45.6 11.9 40.5L8.75 10.73C8.75 5.62999 12.69 1.48999 17.55 1.48999H73.63C78.49 1.48999 82.43 5.62999 82.43 10.73L85.58 40.5C85.58 45.6 81.64 49.74 76.78 49.74H76.77Z" fill="white" stroke="black" stroke-width="3" stroke-miterlimit="10" stroke-linecap="round"/>
<path d="M85.5901 49.74H29.5101C24.6501 49.74 20.7101 45.6 20.7101 40.5L17.5601 10.73C17.5601 5.62999 21.5001 1.48999 26.3601 1.48999H82.4401C87.3001 1.48999 91.2401 5.62999 91.2401 10.73L94.3901 40.5C94.3901 45.6 90.4501 49.74 85.5901 49.74Z" fill="white" stroke="black" stroke-width="3" stroke-miterlimit="10" stroke-linecap="round"/>
<path d="M43.9199 29.52H32.6899C31.4199 29.52 30.3999 27.99 30.3999 26.09L28.8999 15.05C28.8999 13.16 29.9299 11.62 31.1899 11.62H42.4199C43.6899 11.62 44.7099 13.15 44.7099 15.05L46.2099 26.09C46.2099 27.98 45.1799 29.52 43.9199 29.52Z" fill="white" stroke="black" stroke-width="3" stroke-miterlimit="10" stroke-linecap="round"/>
<path d="M11.4497 74L8.18408 63.3589H8.10059C8.11296 63.6125 8.13151 63.9959 8.15625 64.5093C8.18717 65.0164 8.21501 65.5576 8.23975 66.1328C8.26449 66.708 8.27686 67.2275 8.27686 67.6914V74H5.70703V60.4365H9.62207L12.832 70.8086H12.8877L16.2925 60.4365H20.2075V74H17.5264V67.5801C17.5264 67.1533 17.5326 66.6616 17.5449 66.105C17.5635 65.5483 17.5851 65.0195 17.6099 64.5186C17.6346 64.0114 17.6532 63.631 17.6655 63.3774H17.582L14.0845 74H11.4497ZM27.8521 66.0215L30.6816 60.4365H33.7803L29.2808 68.7212V74H26.4233V68.814L21.9238 60.4365H25.041L27.8521 66.0215ZM44.7554 60.4365C46.5057 60.4365 47.7829 60.8138 48.5869 61.5684C49.391 62.3167 49.793 63.3496 49.793 64.667C49.793 65.2607 49.7033 65.8298 49.5239 66.374C49.3446 66.9121 49.0508 67.3914 48.6426 67.812C48.2406 68.2326 47.7025 68.5666 47.0283 68.814C46.3542 69.0552 45.5223 69.1758 44.5327 69.1758H43.2988V74H40.4229V60.4365H44.7554ZM44.6069 62.793H43.2988V66.8193H44.2451C44.7832 66.8193 45.2502 66.7482 45.646 66.606C46.0418 66.4637 46.348 66.241 46.5645 65.938C46.7809 65.6349 46.8892 65.2453 46.8892 64.769C46.8892 64.1011 46.7036 63.6063 46.3325 63.2847C45.9614 62.9569 45.3862 62.793 44.6069 62.793ZM60.6567 74L59.6733 70.7715H54.7285L53.7451 74H50.6465L55.4336 60.3809H58.9497L63.7554 74H60.6567ZM58.9868 68.3594L58.0034 65.2051C57.9416 64.9948 57.8581 64.7257 57.7529 64.3979C57.654 64.064 57.5519 63.7269 57.4468 63.3867C57.3478 63.0404 57.2674 62.7404 57.2056 62.4868C57.1437 62.7404 57.0571 63.0558 56.9458 63.4331C56.8407 63.8042 56.7386 64.1567 56.6396 64.4907C56.5407 64.8247 56.4696 65.0628 56.4263 65.2051L55.4521 68.3594H58.9868ZM70.7041 74H67.8281V62.8301H64.145V60.4365H74.3872V62.8301H70.7041V74ZM87.5889 74H84.7222V68.146H79.3506V74H76.4746V60.4365H79.3506V65.7524H84.7222V60.4365H87.5889V74ZM90.3999 72.6733C90.3999 72.092 90.5576 71.6838 90.873 71.4487C91.1947 71.2137 91.5812 71.0962 92.0327 71.0962C92.4718 71.0962 92.8491 71.2137 93.1646 71.4487C93.4862 71.6838 93.647 72.092 93.647 72.6733C93.647 73.23 93.4862 73.632 93.1646 73.8794C92.8491 74.1268 92.4718 74.2505 92.0327 74.2505C91.5812 74.2505 91.1947 74.1268 90.873 73.8794C90.5576 73.632 90.3999 73.23 90.3999 72.6733Z" fill="black"/>
<path d="M78.3299 15.66L65.4199 28.57" stroke="black" stroke-width="3" stroke-miterlimit="10" stroke-linecap="round"/>
<path d="M60.0699 33.9301L54.3999 39.5901" stroke="black" stroke-width="3" stroke-miterlimit="10" stroke-linecap="round"/>
<path d="M82.7399 25.74L70.1399 38.33" stroke="black" stroke-width="3" stroke-miterlimit="10" stroke-linecap="round"/>
</g>
<defs>
<clipPath id="clip0_317_20">
<rect width="95.89" height="78.09" fill="white"/>
</clipPath>
</defs>
</svg>
