<svg width="38" height="38" viewBox="0 0 38 38" fill="none" xmlns="http://www.w3.org/2000/svg">
<path d="M34.9976 15.1316L34.9144 15.0984C32.7832 14.3343 31.7676 11.9093 32.7499 9.88288L32.7832 9.79983C34.3316 6.56091 30.9351 3.1891 27.7051 4.73382L27.6218 4.76704C25.5739 5.73041 23.1431 4.73382 22.3938 2.60775L22.3605 2.5247C21.1618 -0.847102 16.3666 -0.847102 15.1679 2.5247L15.1346 2.60775C14.3687 4.73382 11.9378 5.74702 9.90657 4.76704L9.82332 4.73382C6.57663 3.1891 3.19675 6.57752 4.74517 9.79983L4.77847 9.88288C5.74415 11.9259 4.74517 14.3509 2.61401 15.0984L2.53076 15.1316C-0.849121 16.3275 -0.849121 21.1112 2.53076 22.3071L2.61401 22.3403C4.74517 23.1043 5.7608 25.5294 4.77847 27.5558L4.74517 27.6388C3.19675 30.8778 6.59328 34.2496 9.82332 32.7049L9.90657 32.6716C11.9545 31.7083 14.3853 32.7049 15.1346 34.8309L15.1679 34.914C16.3666 38.2858 21.1618 38.2858 22.3605 34.914L22.3938 34.8309C23.1597 32.7049 25.5906 31.6917 27.6218 32.6716L27.7051 32.7049C30.9518 34.2496 34.3316 30.8612 32.7832 27.6388L32.7499 27.5558C31.7842 25.5128 32.7832 23.0877 34.9144 22.3403L34.9976 22.3071C38.3775 21.1112 38.3775 16.3275 34.9976 15.1316ZM18.7642 29.9974C12.5206 29.9974 7.45907 24.948 7.45907 18.7193C7.45907 12.4906 12.5206 7.44123 18.7642 7.44123C25.0078 7.44123 30.0693 12.4906 30.0693 18.7193C30.0693 24.948 25.0078 29.9974 18.7642 29.9974Z" fill="#A9A9A9"/>
</svg>
